<svg width="41" height="41" viewBox="0 0 41 41" fill="none" xmlns="http://www.w3.org/2000/svg">
<g filter="url(#filter0_f_12250_18)">
<mask id="path-1-inside-1_12250_18" fill="white">
<path d="M38.1199 20.1186C38.1199 30.0866 30.0392 38.1673 20.0712 38.1673C10.1031 38.1673 2.02246 30.0866 2.02246 20.1186C2.02246 10.1506 10.1031 2.06989 20.0712 2.06989C30.0392 2.06989 38.1199 10.1506 38.1199 20.1186ZM5.65445 20.1186C5.65445 28.0807 12.109 34.5353 20.0712 34.5353C28.0333 34.5353 34.4879 28.0807 34.4879 20.1186C34.4879 12.1565 28.0333 5.70188 20.0712 5.70188C12.109 5.70188 5.65445 12.1565 5.65445 20.1186Z"/>
</mask>
<path d="M38.1199 20.1186C38.1199 30.0866 30.0392 38.1673 20.0712 38.1673C10.1031 38.1673 2.02246 30.0866 2.02246 20.1186C2.02246 10.1506 10.1031 2.06989 20.0712 2.06989C30.0392 2.06989 38.1199 10.1506 38.1199 20.1186ZM5.65445 20.1186C5.65445 28.0807 12.109 34.5353 20.0712 34.5353C28.0333 34.5353 34.4879 28.0807 34.4879 20.1186C34.4879 12.1565 28.0333 5.70188 20.0712 5.70188C12.109 5.70188 5.65445 12.1565 5.65445 20.1186Z" fill="#EEEEEE"/>
<path d="M38.1199 20.1186C38.1199 30.0866 30.0392 38.1673 20.0712 38.1673C10.1031 38.1673 2.02246 30.0866 2.02246 20.1186C2.02246 10.1506 10.1031 2.06989 20.0712 2.06989C30.0392 2.06989 38.1199 10.1506 38.1199 20.1186ZM5.65445 20.1186C5.65445 28.0807 12.109 34.5353 20.0712 34.5353C28.0333 34.5353 34.4879 28.0807 34.4879 20.1186C34.4879 12.1565 28.0333 5.70188 20.0712 5.70188C12.109 5.70188 5.65445 12.1565 5.65445 20.1186Z" stroke="#CDCDCD" stroke-width="2" mask="url(#path-1-inside-1_12250_18)"/>
</g>
<path d="M27.1309 20.1186L16.5419 26.2322L16.5419 14.005L27.1309 20.1186Z" fill="#1617DB"/>
<defs>
<filter id="filter0_f_12250_18" x="0.0224609" y="0.0698853" width="40.0977" height="40.0975" filterUnits="userSpaceOnUse" color-interpolation-filters="sRGB">
<feFlood flood-opacity="0" result="BackgroundImageFix"/>
<feBlend mode="normal" in="SourceGraphic" in2="BackgroundImageFix" result="shape"/>
<feGaussianBlur stdDeviation="1" result="effect1_foregroundBlur_12250_18"/>
</filter>
</defs>
</svg>
